<svg xmlns="http://www.w3.org/2000/svg" width="813.989" height="329.376" viewBox="0 0 813.989 329.376"><g transform="translate(40.24 177.389)"><path d="M2012.973,263.357s21.406,5.517,75.733,0c43.8-4.449,113.1-20.115,181.2-20.3,50.8-.136,118.934,4.3,173.863,9.22,59.523,5.329,107.876-20.685,148.523-19.643,117.863-17.168,187.148-46.66,187.148-46.66s51.9-190.852,45.818-194.3-435.325-21.851-615.291-26.452-189.695-12.651-196.99,0,20.672,173.662,21.888,185.163S2012.973,263.357,2012.973,263.357Z" transform="translate(-2052 -113.822)" fill="#ff6ea1"/><path d="M2767.557,263.357s-86.336-1.168-204.22-4.551c-66.7-9.38-127.733-13.129-196.3-6.526-203.457,19.593-333.158-38.29-333.158-38.29S2006.7-4.875,2012.355-8.325s404.734-21.851,572.054-26.452,176.365-12.651,183.148,0-19.219,173.662-20.35,185.163S2767.557,263.357,2767.557,263.357Z" transform="translate(-2031.387 -135.822)" fill="#fff" opacity="0.24"/></g></svg>