<svg xmlns="http://www.w3.org/2000/svg" width="919.281" height="666.948" viewBox="0 0 919.281 666.948"><g transform="translate(55.861 285.414)"><path d="M2027.242,500.694s230.613-47.613,468.707-17.2,379.356-29.017,379.356-29.017,46.079-614,39.464-619.358-437.74,7.142-633.546,0-276.432,42.583-284.37,62.223,52.881,410.113,54.2,427.967S2027.242,500.694,2027.242,500.694Z" transform="translate(-2052 -119.159)" fill="#ff6ea1"/><path d="M2836.044,500.693S2623.912,451.784,2404.9,483.03s-348.955-29.807-348.955-29.807-60.526-569.093-54.441-574.6,598.117-6.761,778.232-14.1,49.008,140.557,56.31,160.731-20.689,276.937-21.906,295.278S2836.044,500.693,2836.044,500.693Z" transform="translate(-2031.388 -141.159)" fill="#fff" opacity="0.24"/></g></svg>