<svg xmlns="http://www.w3.org/2000/svg" width="98" height="88.179" viewBox="0 0 98 88.179"><g transform="translate(-140 -395.821)"><text transform="translate(141 477)" fill="#fff" font-size="20" font-family="InkFree, Ink Free"><tspan x="0" y="0">Book Share</tspan></text><g transform="translate(-205.206 35.802)"><g transform="translate(378.206 360.02)"><g transform="translate(4.376 3.867)"><path d="M390.826,414.023a14.89,14.89,0,0,1-1.948-1.154,1.5,1.5,0,0,1-.337-1.049q-.029-9.907-.014-19.813c0-3.6.017-7.194-.014-10.79a1.435,1.435,0,0,1,.817-1.468q8.8-5.02,17.55-10.117a2.663,2.663,0,0,1,2.561-.29c.753.337.815.953.116,1.395-.942.6-1.922,1.131-2.888,1.689-5.016,2.9-10.027,5.8-15.057,8.676a1.365,1.365,0,0,0-.8,1.374q.036,15.115.017,30.231Z" transform="translate(-388.513 -369.13)" fill="#fff"/></g><path d="M423.08,365.046a3.115,3.115,0,0,0-1.105-2.556,9.244,9.244,0,0,0-2.5-1.561,12.386,12.386,0,0,0-10.845.727c-.624.357-1.247.718-1.871,1.076l3.312.77c.442-.249.88-.5,1.323-.75a6.976,6.976,0,0,1,6.955.057c1.925,1.032,1.924,2.824.081,4-.365.233-.749.437-1.125.654-5.607,3.238-11.206,6.491-16.831,9.7a1.564,1.564,0,0,0-.9,1.6c.029,9.861.053,19.724-.02,29.584a2.529,2.529,0,0,0,1.621,2.79,1.444,1.444,0,0,0,1.5-.048c2.91-1.713,5.842-3.389,8.766-5.079,3.058-1.766,6.125-3.518,9.171-5.3,1.356-.8,2.453-1.8,2.452-3.561Q423.069,381.094,423.08,365.046Z" transform="translate(-390.496 -360.02)" fill="#fff"/><g transform="translate(0 0.975)"><path d="M380.519,408.939a14.838,14.838,0,0,1-1.948-1.154,1.5,1.5,0,0,1-.337-1.049c-.019-6.6-.014-14.937-.014-21.542,0-3.6.017-7.194-.014-10.79a1.434,1.434,0,0,1,.816-1.468q8.8-5.02,17.55-10.117a2.663,2.663,0,0,1,2.561-.29c.753.337.815.953.116,1.395-.942.6-1.922,1.131-2.888,1.689-5.016,2.9-10.026,5.8-15.057,8.676a1.366,1.366,0,0,0-.8,1.374c.024,10.077.017,21.883.017,31.96Z" transform="translate(-378.206 -362.317)" fill="#fff"/></g></g><g transform="translate(394.776 387.514)"><path d="M433.587,435.218c.008-1.446.186-2.906-.517-4.264a5.614,5.614,0,0,0-4.93-3.231c-1.046-.065-2.089.07-3.134.079-.245,0-.331-.05-.324-.312.019-.742,0-1.484.008-2.227,0-.176-.011-.339-.185-.437s-.323,0-.467.087q-3.265,2.057-6.529,4.117c-.355.225-.364.48-.014.7q3.3,2.1,6.6,4.187c.327.207.59.045.592-.355,0-.765.01-1.53,0-2.294,0-.232.056-.3.3-.3,1,.011,2-.007,3,0a5.565,5.565,0,0,1,5.045,2.93A7.756,7.756,0,0,1,433.587,435.218Z" transform="translate(-417.237 -424.784)" fill="#ff6ea1"/></g></g></g></svg>